<svg id="_0148_rocket_launch_1" xmlns="http://www.w3.org/2000/svg" xmlns:xlink="http://www.w3.org/1999/xlink" viewBox="0 0 500 500" data-imageid="rocket-launch-1-15-701da" imageName="Rocket Launch 1" class="illustrations_image" style="width: 153px;"><defs><style>.cls-1_rocket-launch-1-15-701da{fill:url(#linear-gradient);}.cls-1_rocket-launch-1-15-701da,.cls-2_rocket-launch-1-15-701da,.cls-3_rocket-launch-1-15-701da,.cls-4_rocket-launch-1-15-701da,.cls-5_rocket-launch-1-15-701da,.cls-6_rocket-launch-1-15-701da,.cls-7_rocket-launch-1-15-701da,.cls-8_rocket-launch-1-15-701da,.cls-9_rocket-launch-1-15-701da,.cls-10_rocket-launch-1-15-701da,.cls-11_rocket-launch-1-15-701da,.cls-12_rocket-launch-1-15-701da,.cls-13_rocket-launch-1-15-701da,.cls-14_rocket-launch-1-15-701da,.cls-15_rocket-launch-1-15-701da,.cls-16_rocket-launch-1-15-701da,.cls-17_rocket-launch-1-15-701da,.cls-18_rocket-launch-1-15-701da,.cls-19_rocket-launch-1-15-701da,.cls-20_rocket-launch-1-15-701da,.cls-21_rocket-launch-1-15-701da,.cls-22_rocket-launch-1-15-701da,.cls-23_rocket-launch-1-15-701da,.cls-24_rocket-launch-1-15-701da,.cls-25_rocket-launch-1-15-701da,.cls-26_rocket-launch-1-15-701da,.cls-27_rocket-launch-1-15-701da{stroke-width:0px;}.cls-2_rocket-launch-1-15-701da{isolation:isolate;opacity:.18;}.cls-2_rocket-launch-1-15-701da,.cls-27_rocket-launch-1-15-701da{fill:#68e1fd;}.cls-3_rocket-launch-1-15-701da{fill:url(#linear-gradient-25-rocket-launch-1-15-701da);}.cls-4_rocket-launch-1-15-701da{fill:url(#linear-gradient-11-rocket-launch-1-15-701da);}.cls-5_rocket-launch-1-15-701da{fill:url(#linear-gradient-12-rocket-launch-1-15-701da);}.cls-6_rocket-launch-1-15-701da{fill:url(#linear-gradient-13-rocket-launch-1-15-701da);}.cls-7_rocket-launch-1-15-701da{fill:url(#linear-gradient-10-rocket-launch-1-15-701da);}.cls-8_rocket-launch-1-15-701da{fill:url(#linear-gradient-17-rocket-launch-1-15-701da);}.cls-9_rocket-launch-1-15-701da{fill:url(#linear-gradient-16-rocket-launch-1-15-701da);}.cls-10_rocket-launch-1-15-701da{fill:url(#linear-gradient-19-rocket-launch-1-15-701da);}.cls-11_rocket-launch-1-15-701da{fill:url(#linear-gradient-15-rocket-launch-1-15-701da);}.cls-12_rocket-launch-1-15-701da{fill:url(#linear-gradient-23-rocket-launch-1-15-701da);}.cls-13_rocket-launch-1-15-701da{fill:url(#linear-gradient-21-rocket-launch-1-15-701da);}.cls-14_rocket-launch-1-15-701da{fill:url(#linear-gradient-18-rocket-launch-1-15-701da);}.cls-15_rocket-launch-1-15-701da{fill:url(#linear-gradient-14-rocket-launch-1-15-701da);}.cls-16_rocket-launch-1-15-701da{fill:url(#linear-gradient-22-rocket-launch-1-15-701da);}.cls-17_rocket-launch-1-15-701da{fill:url(#linear-gradient-20-rocket-launch-1-15-701da);}.cls-18_rocket-launch-1-15-701da{fill:url(#linear-gradient-24-rocket-launch-1-15-701da);}.cls-28_rocket-launch-1-15-701da{fill:none;stroke:#68e1fd;stroke-miterlimit:10;stroke-width:.92px;}.cls-19_rocket-launch-1-15-701da{fill:url(#linear-gradient-4-rocket-launch-1-15-701da);}.cls-20_rocket-launch-1-15-701da{fill:url(#linear-gradient-2-rocket-launch-1-15-701da);}.cls-21_rocket-launch-1-15-701da{fill:url(#linear-gradient-3-rocket-launch-1-15-701da);}.cls-22_rocket-launch-1-15-701da{fill:url(#linear-gradient-8-rocket-launch-1-15-701da);}.cls-23_rocket-launch-1-15-701da{fill:url(#linear-gradient-9-rocket-launch-1-15-701da);}.cls-24_rocket-launch-1-15-701da{fill:url(#linear-gradient-7-rocket-launch-1-15-701da);}.cls-25_rocket-launch-1-15-701da{fill:url(#linear-gradient-5-rocket-launch-1-15-701da);}.cls-26_rocket-launch-1-15-701da{fill:url(#linear-gradient-6-rocket-launch-1-15-701da);}</style><linearGradient id="linear-gradient-rocket-launch-1-15-701da" x1="491.42" y1="2408.78" x2="439.71" y2="2570.62" gradientTransform="translate(-82.83 2883.06) scale(1 -1)" gradientUnits="userSpaceOnUse"><stop offset=".02" stop-color="#fff" stop-opacity="0"/><stop offset=".32" stop-color="#fff" stop-opacity=".39"/><stop offset=".68" stop-color="#fff" stop-opacity=".68"/><stop offset="1" stop-color="#fff"/></linearGradient><linearGradient id="linear-gradient-2-rocket-launch-1-15-701da" x1="162.45" y1="2427.89" x2="230.86" y2="2544.69" xlink:href="#linear-gradient-rocket-launch-1-15-701da"/><linearGradient id="linear-gradient-3-rocket-launch-1-15-701da" x1="214.51" y1="2608.69" x2="246.42" y2="2608.69" gradientTransform="translate(-31 2886.34) scale(1 -1)" gradientUnits="userSpaceOnUse"><stop offset="0" stop-color="#000" stop-opacity="0"/><stop offset=".95" stop-color="#000"/></linearGradient><linearGradient id="linear-gradient-4-rocket-launch-1-15-701da" x1="202.58" y1="2716.31" x2="350.14" y2="2711.13" xlink:href="#linear-gradient-3-rocket-launch-1-15-701da"/><linearGradient id="linear-gradient-5-rocket-launch-1-15-701da" x1="312.11" x2="344.02" xlink:href="#linear-gradient-3-rocket-launch-1-15-701da"/><linearGradient id="linear-gradient-6-rocket-launch-1-15-701da" x1="286.65" y1="2656.9" x2="364.69" y2="2656.9" xlink:href="#linear-gradient-3-rocket-launch-1-15-701da"/><linearGradient id="linear-gradient-7-rocket-launch-1-15-701da" x1="198.84" y1="2656.9" x2="265.7" y2="2656.9" xlink:href="#linear-gradient-3-rocket-launch-1-15-701da"/><linearGradient id="linear-gradient-8-rocket-launch-1-15-701da" x1="324.21" y1="2684.97" x2="371.48" y2="2686.09" xlink:href="#linear-gradient-rocket-launch-1-15-701da"/><linearGradient id="linear-gradient-9-rocket-launch-1-15-701da" x1="260.28" y1="2742.58" x2="292.53" y2="2704.62" xlink:href="#linear-gradient-3-rocket-launch-1-15-701da"/><linearGradient id="linear-gradient-10-rocket-launch-1-15-701da" x1="225.11" y1="2635.46" x2="227.9" y2="2535.92" gradientTransform="translate(-31 2886.34) scale(1 -1)" xlink:href="#linear-gradient-rocket-launch-1-15-701da"/><linearGradient id="linear-gradient-11-rocket-launch-1-15-701da" x1="220.43" y1="2630.03" x2="317.56" y2="2609.64" xlink:href="#linear-gradient-3-rocket-launch-1-15-701da"/><linearGradient id="linear-gradient-12-rocket-launch-1-15-701da" x1="301.99" y1="2625.08" x2="362.98" y2="2625.08" gradientTransform="translate(-31 2886.34) scale(1 -1)" xlink:href="#linear-gradient-rocket-launch-1-15-701da"/><linearGradient id="linear-gradient-13-rocket-launch-1-15-701da" x1="278.44" y1="2627.91" x2="280.28" y2="2566" gradientTransform="translate(-31 2886.34) scale(1 -1)" xlink:href="#linear-gradient-rocket-launch-1-15-701da"/><linearGradient id="linear-gradient-14-rocket-launch-1-15-701da" x1="243.83" y1="2605.91" x2="314.39" y2="2605.91" gradientTransform="translate(-31 2886.34) scale(1 -1)" xlink:href="#linear-gradient-rocket-launch-1-15-701da"/><linearGradient id="linear-gradient-15-rocket-launch-1-15-701da" x1="276.77" y1="2799.94" x2="278.99" y2="2731.27" gradientTransform="translate(-31 2886.34) scale(1 -1)" xlink:href="#linear-gradient-rocket-launch-1-15-701da"/><linearGradient id="linear-gradient-16-rocket-launch-1-15-701da" x1="217.34" y1="2591.58" x2="216.97" y2="2553.02" gradientTransform="translate(-31 2886.34) scale(1 -1)" xlink:href="#linear-gradient-rocket-launch-1-15-701da"/><linearGradient id="linear-gradient-17-rocket-launch-1-15-701da" x1="338.91" y1="2586.94" x2="341.13" y2="2545.41" gradientTransform="translate(-31 2886.34) scale(1 -1)" xlink:href="#linear-gradient-rocket-launch-1-15-701da"/><linearGradient id="linear-gradient-18-rocket-launch-1-15-701da" x1="211.47" y1="2551.56" x2="249.29" y2="2551.56" xlink:href="#linear-gradient-3-rocket-launch-1-15-701da"/><linearGradient id="linear-gradient-19-rocket-launch-1-15-701da" x1="206.65" y1="2539.33" x2="253.55" y2="2539.33" xlink:href="#linear-gradient-3-rocket-launch-1-15-701da"/><linearGradient id="linear-gradient-20-rocket-launch-1-15-701da" x1="309.07" y1="2551.56" x2="346.88" y2="2551.56" xlink:href="#linear-gradient-3-rocket-launch-1-15-701da"/><linearGradient id="linear-gradient-21-rocket-launch-1-15-701da" x1="304.25" y1="2539.33" x2="351.15" y2="2539.33" xlink:href="#linear-gradient-3-rocket-launch-1-15-701da"/><linearGradient id="linear-gradient-22-rocket-launch-1-15-701da" x1="250.6" y1="2581.93" x2="307.83" y2="2581.93" gradientTransform="translate(-31 2886.34) scale(1 -1)" xlink:href="#linear-gradient-rocket-launch-1-15-701da"/><linearGradient id="linear-gradient-23-rocket-launch-1-15-701da" x1="280.17" y1="2442.63" x2="279.08" y2="2631.28" gradientTransform="translate(-31 2886.34) scale(1 -1)" xlink:href="#linear-gradient-rocket-launch-1-15-701da"/><linearGradient id="linear-gradient-24-rocket-launch-1-15-701da" x1="231.67" y1="2472.95" x2="236.11" y2="2608.64" gradientTransform="translate(-31 2886.34) scale(1 -1)" xlink:href="#linear-gradient-rocket-launch-1-15-701da"/><linearGradient id="linear-gradient-25-rocket-launch-1-15-701da" x1="329.63" y1="2480.7" x2="328.89" y2="2574.12" gradientTransform="translate(-31 2886.34) scale(1 -1)" xlink:href="#linear-gradient-rocket-launch-1-15-701da"/></defs><g id="background_rocket-launch-1-15-701da"><path class="cls-2_rocket-launch-1-15-701da targetColor" d="M478.54,245.43c0,127.77-103.58,231.35-231.35,231.35S15.85,373.2,15.85,245.43c0-127.77,103.58-231.35,231.35-231.35h0c127.49-.28,231.06,102.84,231.35,230.32,0,.34,0,.68,0,1.02Z" style="fill: rgb(104, 225, 253);"/><path class="cls-27_rocket-launch-1-15-701da targetColor" d="M451.84,245.44c0,113.02-91.62,204.64-204.64,204.64S42.56,358.46,42.56,245.44,134.18,40.8,247.2,40.8c112.75-.27,204.37,90.92,204.64,203.68,0,.32,0,.64,0,.97Z" style="fill: rgb(104, 225, 253);"/><path class="cls-1_rocket-launch-1-15-701da" d="M460.96,334.04c-26.61,64-80.45,112.75-146.77,132.89-15.57-14.61-16.35-39.08-1.74-54.65,5.28-5.62,12.11-9.54,19.63-11.24,1.97-.44,3.98-.73,5.99-.86.09-18.64,15.27-33.68,33.91-33.59,5.13.02,10.19,1.22,14.79,3.49,8.15-29.27,38.48-46.4,67.75-38.26,2.19.61,4.33,1.35,6.43,2.23h0Z"/><path class="cls-20_rocket-launch-1-15-701da" d="M198.01,438.73c.01,11.33-4.96,22.09-13.59,29.42-67.36-19.07-122.5-67.55-150.03-131.92,26.84-14.25,60.15-4.06,74.4,22.78,1.87,3.52,3.35,7.22,4.42,11.06,16.71-8.26,36.95-1.41,45.21,15.3,2.27,4.6,3.47,9.66,3.49,14.79,1.78.11,3.56.35,5.31.73,17.94,3.7,30.81,19.51,30.8,37.83Z"/></g><g id="rocket_rocket-launch-1-15-701da"><path class="cls-21_rocket-launch-1-15-701da" d="M199.47,212.61h0c8.81,0,15.95,7.15,15.95,15.96v98.15c0,8.82-7.14,15.96-15.95,15.96h0c-8.81,0-15.95-7.15-15.95-15.96v-98.15c0-8.82,7.14-15.96,15.95-15.96Z"/><path class="cls-27_rocket-launch-1-15-701da targetColor" d="M246.89,68.14h0c17.62,0,31.91,14.29,31.91,31.91v145.27c0,17.62-14.29,31.91-31.91,31.91h0c-17.62,0-31.91-14.29-31.91-31.91V100.05c0-17.62,14.29-31.91,31.91-31.91Z" style="fill: rgb(104, 225, 253);"/><path class="cls-19_rocket-launch-1-15-701da" d="M246.89,68.14h0c17.62,0,31.91,14.29,31.91,31.91v145.27c0,17.62-14.29,31.91-31.91,31.91h0c-17.62,0-31.91-14.29-31.91-31.91V100.05c0-17.62,14.29-31.91,31.91-31.91Z"/><rect class="cls-27_rocket-launch-1-15-701da targetColor" x="280.57" y="164.41" width="31.91" height="130.08" rx="15.95" ry="15.95" style="fill: rgb(104, 225, 253);"/><rect class="cls-25_rocket-launch-1-15-701da" x="281.11" y="212.61" width="31.91" height="130.08" rx="15.95" ry="15.95"/><path class="cls-27_rocket-launch-1-15-701da targetColor" d="M199.47,164.41h0c8.81,0,15.95,7.15,15.95,15.96v98.15c0,8.82-7.14,15.96-15.95,15.96h0c-8.81,0-15.95-7.15-15.95-15.96v-98.15c0-8.82,7.14-15.96,15.95-15.96Z" style="fill: rgb(104, 225, 253);"/><rect class="cls-26_rocket-launch-1-15-701da" x="280.57" y="164.41" width="31.91" height="130.08" rx="15.95" ry="15.95"/><path class="cls-24_rocket-launch-1-15-701da" d="M199.47,164.41h0c8.81,0,15.95,7.15,15.95,15.96v98.15c0,8.82-7.14,15.96-15.95,15.96h0c-8.81,0-15.95-7.15-15.95-15.96v-98.15c0-8.82,7.14-15.96,15.95-15.96Z"/><path class="cls-27_rocket-launch-1-15-701da targetColor" d="M270.88,281.17h-45.87l.5-129.19c0-15.6,9.05-29.72,22.38-37.81h0c14.51,6.62,22.89,23.61,22.99,36.76v130.24Z" style="fill: rgb(104, 225, 253);"/><path class="cls-22_rocket-launch-1-15-701da" d="M270.88,281.17h-45.87l.5-129.19c0-15.6,9.05-29.72,22.38-37.81h0c14.51,6.62,22.89,23.61,22.99,36.76v130.24Z"/><circle class="cls-23_rocket-launch-1-15-701da" cx="247.72" cy="165.47" r="11.61"/><polygon class="cls-27_rocket-launch-1-15-701da targetColor" points="224.78 220.99 164.03 301.54 214.21 301.54 225.02 281.18 224.78 220.99" style="fill: rgb(104, 225, 253);"/><polygon class="cls-27_rocket-launch-1-15-701da targetColor" points="271.23 220.99 331.98 301.54 281.8 301.54 270.99 281.18 271.23 220.99" style="fill: rgb(104, 225, 253);"/><polygon class="cls-7_rocket-launch-1-15-701da" points="224.78 220.99 164.03 301.54 214.21 301.54 225.02 281.18 224.78 220.99"/><polygon class="cls-4_rocket-launch-1-15-701da" points="224.78 220.99 224.78 284.37 214.21 301.54 201.23 301.54 215.42 278.54 215.42 232.46 224.78 220.99"/><polygon class="cls-5_rocket-launch-1-15-701da" points="271.23 220.99 331.98 301.54 281.8 301.54 270.99 281.18 271.23 220.99"/><rect class="cls-27_rocket-launch-1-15-701da targetColor" x="219.6" y="271.73" width="57.23" height="25.32" style="fill: rgb(104, 225, 253);"/><rect class="cls-6_rocket-launch-1-15-701da" x="219.6" y="271.73" width="57.23" height="25.32"/><rect class="cls-15_rocket-launch-1-15-701da" x="212.83" y="276.5" width="70.56" height="7.86"/><rect class="cls-11_rocket-launch-1-15-701da" x="213.89" y="104.12" width="65.03" height="3.63"/><rect class="cls-27_rocket-launch-1-15-701da targetColor" x="154.89" y="301.54" width="62.59" height="18.96" style="fill: rgb(104, 225, 253);"/><rect class="cls-27_rocket-launch-1-15-701da targetColor" x="277.24" y="301.54" width="62.59" height="18.96" style="fill: rgb(104, 225, 253);"/><rect class="cls-9_rocket-launch-1-15-701da" x="154.89" y="301.54" width="62.59" height="18.96"/><rect class="cls-8_rocket-launch-1-15-701da" x="277.24" y="301.54" width="62.59" height="18.96"/><rect class="cls-27_rocket-launch-1-15-701da targetColor" x="180.47" y="326.63" width="37.81" height="16.31" style="fill: rgb(104, 225, 253);"/><polygon class="cls-28_rocket-launch-1-15-701da" points="222.55 351.1 175.65 351.1 180.47 342.94 218.29 342.94 222.55 351.1"/><rect class="cls-27_rocket-launch-1-15-701da targetColor" x="278.07" y="326.63" width="37.81" height="16.31" style="fill: rgb(104, 225, 253);"/><polygon class="cls-28_rocket-launch-1-15-701da" points="320.15 351.1 273.25 351.1 278.07 342.94 315.88 342.94 320.15 351.1"/><rect class="cls-14_rocket-launch-1-15-701da" x="180.47" y="326.63" width="37.81" height="16.31"/><polygon class="cls-10_rocket-launch-1-15-701da" points="222.55 351.1 175.65 351.1 180.47 342.94 218.29 342.94 222.55 351.1"/><rect class="cls-17_rocket-launch-1-15-701da" x="278.07" y="326.63" width="37.81" height="16.31"/><polygon class="cls-13_rocket-launch-1-15-701da" points="320.15 351.1 273.25 351.1 278.07 342.94 315.88 342.94 320.15 351.1"/><polygon class="cls-16_rocket-launch-1-15-701da" points="219.6 297.03 223.47 311.81 272.5 311.81 276.83 297.03 219.6 297.03"/><polygon class="cls-12_rocket-launch-1-15-701da" points="223.47 311.81 184.42 468.14 314.19 466.92 272.5 311.81 223.47 311.81"/><polygon class="cls-18_rocket-launch-1-15-701da" points="222.55 351.1 236.82 418.95 164.16 418.95 175.65 351.1 222.55 351.1"/><polygon class="cls-3_rocket-launch-1-15-701da" points="273.25 351.1 261.29 418.2 336.17 418.2 320.15 351.1 273.25 351.1"/></g></svg>